<svg xmlns="http://www.w3.org/2000/svg" viewBox="0 0 24 24" fill="#1DB954"><path d="M12 2C6.48 2 2 6.48 2 12s4.48 10 10 10 10-4.48 10-10S17.52 2 12 2zm4.65 14.35c-.15.25-.45.3-.7.15-2.05-1.25-4.65-1.55-7.7-.85-.3.05-.55-.15-.6-.4s.15-.55.4-.6c3.35-.75 6.2-.4 8.45.95.25.15.3.45.15.75zm1.25-2.7c-.2.3-.6.4-.9.2-2.35-1.45-5.95-1.9-8.7-1.05-.35.1-.7-.1-.8-.45s.1-.7.45-.8c3.15-.95 7.15-.45 9.85 1.2.3.2.4.6.2.9zm.1-2.85c-2.85-1.7-7.55-1.85-10.3-.95-.45.15-.9-.1-.1.55s.1-.9.55-1.05c3.15-1 8.35-.8 11.6 1.15.4.25.55.75.3 1.15-.25.4-.75.55-1.15.3z"/></svg>
